<svg version="1.1" id="Layer_1" xmlns="http://www.w3.org/2000/svg" xmlns:xlink="http://www.w3.org/1999/xlink" x="0px" y="0px" viewBox="0 0 182.1 198.3" style="enable-background:new 0 0 182.1 198.3;" xml:space="preserve" width="100%" height="100%" preserveAspectRatio="none"><style type="text/css"> .st0{fill:#00A7E1;} .st1{fill:#5A5A5A;} </style><g><path class="st0" d="M178.8,186.6c0-3.2-1.2-5.7-5.6-8.2l-4.8-2.7c-2.6-1.4-3.3-2.3-3.3-3.6c0-1.8,1.2-2.9,4.2-2.9 c2.6,0,5.3,0.2,7.9,0.4c0,0,0,0,0.1,0c0.4,0,0.7-0.3,0.7-0.7v-3c0-0.4-0.3-0.7-0.7-0.8c-1.4-0.3-5.1-0.7-7.7-0.7 c-7.5,0-10,3.2-10,7.6c0,2.8,1,5.1,4.7,7.3l5.3,3.2c2.6,1.6,3.4,2.4,3.4,3.9c0,2.3-1.1,3.6-4.6,3.6c-1.5,0-5.5-0.2-7.1-0.4 c0,0,0,0-0.1,0c-0.4,0-0.8,0.3-0.8,0.8v2.9c0,0.4,0.4,0.7,0.8,0.8c1.9,0.4,4.1,0.7,7.1,0.7C176.3,195,178.8,190.7,178.8,186.6"/><g><g><path class="st0" d="M156.1,193.9l-6.3-11.7c3.3-1.3,5.4-3.9,5.4-8.2v-0.4c0-6.9-5.4-9.1-11.6-9.1c-2.9,0-5.8,0.2-7.9,0.5 c-0.8,0.1-1.3,0.4-1.3,1.2v27.6c0,0.4,0.4,0.8,0.8,0.8h4c0.4,0,0.8-0.4,0.8-0.8V183c0.9,0,2.5,0.2,3.6,0.2h0.6l5.8,10.7 c0.2,0.4,0.4,0.8,0.8,0.8h4.9c0.3,0,0.5-0.2,0.5-0.5C156.2,194.1,156.2,194,156.1,193.9z M149.7,174c0,3.5-1.9,4.6-6,4.6 c-0.7,0-2.9-0.1-3.6-0.1v-9c0.7-0.1,2.7-0.2,3.6-0.2c4,0,6,1.3,6,4.3V174z"/></g></g><path class="st0" d="M129.1,193.6V191c0-0.4-0.4-0.8-0.8-0.8h-8.2c-2.3,0-3.2-0.8-3.2-3.4v-5.2h10.9c0.4,0,0.8-0.4,0.8-0.8v-2.9 c0-0.4-0.4-0.8-0.8-0.8H117v-4.3c0-2.6,0.8-3.4,3.2-3.4h8.2c0.4,0,0.8-0.4,0.8-0.8V166c0-0.6-0.2-0.8-0.8-0.8 c-1.3-0.2-2.8-0.6-7.6-0.6c-5.2,0-9.3,1.4-9.3,8.2v14c0,6.8,4.1,8.2,9.3,8.2c4.8,0,6.3-0.4,7.6-0.6 C128.9,194.4,129.1,194.2,129.1,193.6z"/><path class="st0" d="M107.3,194.3c0-0.1-0.1-0.3-0.2-0.5l-10.3-14.5l10.3-13.3c0.2-0.2,0.3-0.4,0.3-0.6c0-0.3-0.2-0.5-0.8-0.5H102 c-0.4,0-0.7,0-0.9,0.3l-9.8,13.2v-12.8c0-0.4-0.4-0.8-0.8-0.8h-4c-0.4,0-0.8,0.3-0.8,0.8v28.2c0,0.4,0.4,0.8,0.8,0.8h4 c0.4,0,0.8-0.4,0.8-0.8v-13.3l9.2,13.7c0.2,0.3,0.4,0.4,0.9,0.4h5.4C107.1,194.7,107.3,194.6,107.3,194.3z"/><g><g><path class="st0" d="M69,164.6c-6.6,0-11.4,3.7-11.4,12.5v5.4c0,8.8,4.8,12.5,11.4,12.5s11.4-3.7,11.4-12.5v-5.4 C80.4,168.3,75.6,164.6,69,164.6z M74.8,182.5c0,5.3-1.9,7.7-5.8,7.7s-5.8-2.4-5.8-7.7v-5.4c0-5.3,1.9-7.7,5.8-7.7 c3.9,0,5.8,2.4,5.8,7.7V182.5z"/></g></g><g><g><path class="st0" d="M53.8,193.9l-6.3-11.7c3.3-1.3,5.4-3.9,5.4-8.2v-0.4c0-6.9-5.4-9.1-11.5-9.1c-2.9,0-5.8,0.2-7.9,0.5 c-0.8,0.1-1.3,0.4-1.3,1.2v27.6c0,0.4,0.4,0.8,0.8,0.8h4c0.4,0,0.8-0.4,0.8-0.8V183c0.9,0,2.5,0.2,3.6,0.2h0.6l5.8,10.7 c0.2,0.4,0.4,0.8,0.8,0.8h4.9c0.3,0,0.5-0.2,0.5-0.5C53.8,194.1,53.8,194,53.8,193.9z M47.3,174c0,3.5-1.9,4.6-6,4.6 c-0.7,0-2.9-0.1-3.6-0.1v-9c0.7-0.1,2.7-0.2,3.6-0.2c4,0,6,1.3,6,4.3V174z"/></g></g><g><g><path class="st0" d="M23.3,179.6c2.5-1,3.7-3.4,3.7-6.1v-0.8c0-6.1-5.1-8.1-12.4-8.1c-3.1,0-5.6,0.2-6.7,0.4 c-1.3,0.2-1.8,0.7-1.8,2.2v25.3c0,1.5,0.6,1.9,1.9,2.2c1.2,0.2,3.7,0.4,6.9,0.4c7.5,0,12.2-2.3,12.2-8.7v-0.7 C27.2,182.6,25.7,180.6,23.3,179.6z M11.7,169.3c0.8,0,2-0.1,2.9-0.1c5.1,0,6.9,1,6.9,3.9v0.6c0,2.1-1,3.8-4.8,3.8h-5.1V169.3z M21.7,186.3c0,2.8-1.6,4.1-6.7,4.1c-0.8,0-2.3-0.1-3.3-0.1v-8.8h5.1c3.8,0,4.9,2.1,4.9,4.3L21.7,186.3L21.7,186.3z"/></g></g></g><path class="st0" d="M179.4,87.2v-2.5c0-11-5.3-18.5-14.3-22.3c9-3.8,13.5-12.5,13.5-22.2v-2.9c0-38.4-50.2-29.1-74.1-28 c-1.3,0.1-2.3,0.9-2.3,2.2v33.3c0,1.3,1.1,2.2,2.3,2.2h15.2c1.3,0,2.3-0.9,2.3-2.2V24.4c5.6,0,10.5,0,11.3,0 c18.8,0,25.4,3.8,25.4,14.1v2.1c0,7.5-3.8,14-17.5,14h-5.7h-3.9c-1.3,0-2.2,1.1-2.2,2.3v10.3c0,1.3,0.9,2.3,2.2,2.3h3.9h5.7 c13.8,0,18.1,7.5,18.1,15.6v1.9c0,10.3-5.9,15.2-24.7,15.2H130c-1.9,0-2.3,0.4-2.8,1.7c-2.2,5.4-5.4,9.6-9.9,13 c-0.5,0.4-0.8,1.2,0.4,1.2C142,119.9,179.4,122.2,179.4,87.2z"/><g><path class="st1" d="M23.9,147.7V128v0v0v0v0l0,0v0v0l0,0v0v0l0,0v0l0,0l0,0c0,0,0,0,0,0l0,0c0,0,0,0,0-0.1c0-0.1-0.1-0.1-0.2-0.2 l0,0c0,0,0,0,0,0l0,0l0,0l0,0c0,0,0,0,0,0l0,0h0l0,0h0h0l0,0h0h0h0h0h0h0h-4.1h0h0h0h0h0h0l0,0h0h0l0,0h0l0,0c0,0,0,0,0,0l0,0l0,0 l0,0c0,0,0,0,0,0l0,0c-0.1,0.1-0.1,0.1-0.2,0.2c0,0,0,0,0,0.1l0,0c0,0,0,0,0,0v0l0,0v0l0,0v0v0l0,0v0v0l0,0v0v0v0v0v19.6 c0,3.6-0.5,5.3-3.9,5.3s-4.1-1.7-4.1-5.3V128c0-0.3-0.3-0.6-0.6-0.6H5.7c-0.3,0-0.6,0.3-0.6,0.6v20.7c0,6.7,4.6,8.9,9.6,8.9 c2.7,0,4.9-0.6,6.4-2.2c1.5,1.6,3.8,2.2,6.4,2.2c5,0,9.6-2.2,9.6-8.9V128c0-0.3-0.3-0.6-0.6-0.6h-4.1c-0.3,0-0.6,0.3-0.6,0.6v19.6 c0,3.6-0.7,5.3-4.1,5.3C24.4,152.9,23.9,151.2,23.9,147.7"/><path class="st1" d="M48.5,156.4v-28.2c0-0.4-0.4-0.8-0.8-0.8h-4c-0.4,0-0.8,0.3-0.8,0.8v28.2c0,0.4,0.4,0.8,0.8,0.8h4 C48.2,157.2,48.5,156.9,48.5,156.4z"/><path class="st1" d="M77.1,155.6v-27.4c0-0.4-0.3-0.8-0.8-0.8h-3.4c-0.4,0-0.8,0.3-0.8,0.8v21.1c0,0.2-0.1,0.4-0.2,0.4 c-0.1,0-0.2-0.1-0.3-0.3l-9.3-20.6c-0.5-1-0.9-1.3-1.8-1.3h-4.3c-0.9,0-1.6,0.7-1.6,1.6v27.4c0,0.4,0.4,0.8,0.8,0.8h3.4 c0.4,0,0.8-0.4,0.8-0.8v-20.1c0-0.2,0.1-0.3,0.2-0.3s0.2,0.1,0.4,0.3l8.9,19.5c0.6,1.4,1.5,1.4,2.4,1.4h4.1 C76.3,157.2,77.1,156.5,77.1,155.6z"/><path class="st1" d="M127.5,149.1c0-3.2-1.2-5.7-5.6-8.2l-4.8-2.7c-2.6-1.4-3.3-2.3-3.3-3.6c0-1.8,1.2-2.9,4.2-2.9 c2.6,0,5.3,0.2,7.9,0.4c0,0,0,0,0.1,0c0.4,0,0.7-0.3,0.7-0.7v-3c0-0.4-0.3-0.7-0.7-0.8c-1.4-0.3-5.1-0.7-7.7-0.7 c-7.5,0-10,3.2-10,7.6c0,2.8,1,5.1,4.7,7.3l5.3,3.2c2.7,1.6,3.4,2.4,3.4,3.9c0,2.3-1.1,3.6-4.7,3.6c-1.5,0-5.5-0.2-7.1-0.4 c0,0,0,0-0.1,0c-0.4,0-0.8,0.3-0.8,0.8v2.9c0,0.4,0.4,0.7,0.8,0.8c1.9,0.4,4.1,0.7,7.1,0.7C124.9,157.5,127.5,153.2,127.5,149.1z"/><path class="st1" d="M72.5,82.1V9.3V9.3V9.2V9.1l0,0l0,0l0-0.1l0-0.1l0,0l0-0.1l0,0l0-0.1l0,0l0-0.1l0,0l0-0.1l0,0l0-0.1l0,0l0-0.1 l0,0c0-0.1,0-0.1-0.1-0.1l0,0l0-0.1l0,0c0-0.1-0.1-0.1-0.1-0.2l0,0c-0.2-0.3-0.4-0.5-0.6-0.6l0,0l-0.1-0.1l0,0 c-0.1,0-0.1-0.1-0.2-0.1l0,0l-0.1,0l0,0l-0.1,0l0,0c-0.1,0-0.1,0-0.2-0.1l0,0l-0.1,0l0,0l-0.1,0l0,0l-0.1,0l0,0l-0.1,0l0,0l-0.1,0 l0,0l0,0l-0.1,0l0,0h-0.1h-0.1h-0.1h-0.1H55h-0.1h-0.1h-0.1h-0.1l0,0l-0.1,0l-0.1,0l0,0l-0.1,0l0,0l-0.1,0l0,0l-0.1,0l0,0l0,0l0,0 l-0.1,0l0,0c0,0-0.1,0-0.2,0.1l0,0l0,0l0,0l-0.1,0l0,0c-0.1,0-0.1,0.1-0.2,0.1l0,0l-0.1,0.1l0,0c-0.3,0.2-0.5,0.4-0.6,0.6l0,0 c0,0.1-0.1,0.1-0.1,0.2l0,0l0,0.1l0,0c0,0.1,0,0.1-0.1,0.1l0,0l0,0.1l0,0l0,0.1l0,0l0,0.1l0,0l0,0.1l0,0l0,0.1l0,0l0,0.1l0,0l0,0.1 l0,0.1l0,0l0,0.1v0.1v0.1v0.1v72.7c0,13.2-2,19.4-14.5,19.4S23,95.3,23,82.1V9.3c0-1.3-1-2.2-2.3-2.2H5.4c-1.3,0-2.3,0.9-2.3,2.2 v76.5c0,24.7,17,32.8,35.7,32.8c9.8,0,18.2-2.3,23.8-8c5.7,5.7,14,8,23.8,8c18.7,0,35.7-8.2,35.7-32.8V56.4c0-1.2-1.1-2.2-2.3-2.2 h-15.2c-1.2,0-2.3,0.9-2.3,2.2v25.7c0,13.2-2.6,19.4-15.2,19.4S72.5,95.3,72.5,82.1z"/><path class="st1" d="M179.9,156.4l-6.3-11.7c3.3-1.3,5.4-3.9,5.4-8.2v-0.4c0-6.9-5.4-9.1-11.6-9.1c-2.9,0-5.8,0.2-7.9,0.5 c-0.8,0.1-1.3,0.4-1.3,1.2v27.6c0,0.4,0.4,0.8,0.8,0.8h4c0.4,0,0.8-0.4,0.8-0.8v-10.9c0.9,0,2.5,0.2,3.6,0.2h0.6l5.8,10.7 c0.2,0.4,0.4,0.8,0.8,0.8h4.9c0.3,0,0.5-0.2,0.5-0.5C179.9,156.6,179.9,156.5,179.9,156.4z M173.4,136.5c0,3.5-1.9,4.6-6,4.6 c-0.7,0-2.9-0.1-3.6-0.1v-9c0.7-0.1,2.7-0.2,3.6-0.2c4,0,6,1.3,6,4.3V136.5z"/><path class="st1" d="M92,127.1c-2.8,0-6.7,0.3-7.9,0.5c-0.7,0.1-1,0.4-1,1.2v27c0,0.8,0.4,1.1,1,1.2c1.2,0.2,5.1,0.5,7.9,0.5 c8,0,12.6-4.3,12.6-12.3v-5.9C104.6,131.4,100.1,127.1,92,127.1z M99.1,145.3c0,6-3.1,7.6-7.1,7.6c-1.5,0-2.5-0.1-3.4-0.1v-20.8 c0.8,0,1.9-0.1,3.4-0.1c4,0,7.1,1.6,7.1,7.6V145.3z"/><path class="st1" d="M142.5,127.1c-6.6,0-11.4,3.7-11.4,12.5v5.4c0,8.8,4.8,12.5,11.4,12.5s11.4-3.7,11.4-12.5v-5.4 C153.9,130.8,149.1,127.1,142.5,127.1z M148.3,145c0,5.3-1.9,7.7-5.8,7.7c-3.9,0-5.8-2.4-5.8-7.7v-5.4c0-5.3,1.9-7.7,5.8-7.7 c3.9,0,5.8,2.4,5.8,7.7V145z"/></g></svg>